<svg width="70" height="70" viewBox="0 0 70 70" fill="none" xmlns="http://www.w3.org/2000/svg">
<g clip-path="url(#clip0_1_35)">
<rect width="70" height="70" fill="white"/>
<g clip-path="url(#clip1_1_35)">
<path d="M70 0H0V70H70V0Z" fill="url(#paint0_linear_1_35)"/>
<path opacity="0.324" fill-rule="evenodd" clip-rule="evenodd" d="M39.8462 69H4C2 69 0 68.8544 0 64.9245L0 40.9564L19.6596 16.071L47 15L49.9212 50.2849L39.8462 69Z" fill="#393939"/>
<path opacity="0.3" d="M51.471 28.8125C51.9702 28.8125 52.375 28.4102 52.375 27.9141V24.9193C52.375 24.4231 51.9702 24.0208 51.471 24.0208H49.9643V20.4271C49.9643 18.4423 48.3453 16.8333 46.3482 16.8333H22.2411C20.2439 16.8333 18.625 18.4423 18.625 20.4271V51.5729C18.625 53.5577 20.2439 55.1667 22.2411 55.1667H46.3482C48.3453 55.1667 49.9643 53.5577 49.9643 51.5729V47.9792H51.471C51.9702 47.9792 52.375 47.5769 52.375 47.0807V44.0859C52.375 43.5898 51.9702 43.1875 51.471 43.1875H49.9643V38.3958H51.471C51.9702 38.3958 52.375 37.9936 52.375 37.4974V34.5026C52.375 34.0065 51.9702 33.6042 51.471 33.6042H49.9643V28.8125H51.471ZM45.8962 51.5729H22.6931C22.4434 51.5729 22.2411 51.3718 22.2411 51.1237V20.8763C22.2411 20.6282 22.4434 20.4271 22.6931 20.4271H45.8962C46.1458 20.4271 46.3482 20.6282 46.3482 20.8763V51.1237C46.3482 51.3718 46.1458 51.5729 45.8962 51.5729ZM28.2679 32.4063C28.2679 29.0983 30.9661 26.4167 34.2946 26.4167C37.6232 26.4167 40.3214 29.0983 40.3214 32.4063C40.3214 35.7142 37.6232 38.3958 34.2946 38.3958C30.9661 38.3958 28.2679 35.7142 28.2679 32.4063ZM43.9375 42.3997V43.7865C43.9375 44.7789 43.128 45.5833 42.1295 45.5833H26.4598C25.4613 45.5833 24.6518 44.7789 24.6518 43.7865V42.3997C24.6518 40.7506 25.7811 39.3131 27.3908 38.9132L30.077 38.2458C32.2693 39.813 35.6901 40.2632 38.5123 38.2458L41.1985 38.9132C42.8082 39.3131 43.9375 40.7506 43.9375 42.3997Z" fill="black"/>
<path d="M51.471 26.8125C51.9702 26.8125 52.375 26.4102 52.375 25.9141V22.9193C52.375 22.4231 51.9702 22.0208 51.471 22.0208H49.9643V18.4271C49.9643 16.4423 48.3453 14.8333 46.3482 14.8333H22.2411C20.2439 14.8333 18.625 16.4423 18.625 18.4271V49.5729C18.625 51.5577 20.2439 53.1667 22.2411 53.1667H46.3482C48.3453 53.1667 49.9643 51.5577 49.9643 49.5729V45.9792H51.471C51.9702 45.9792 52.375 45.5769 52.375 45.0807V42.0859C52.375 41.5898 51.9702 41.1875 51.471 41.1875H49.9643V36.3958H51.471C51.9702 36.3958 52.375 35.9936 52.375 35.4974V32.5026C52.375 32.0065 51.9702 31.6042 51.471 31.6042H49.9643V26.8125H51.471ZM45.8962 49.5729H22.6931C22.4434 49.5729 22.2411 49.3718 22.2411 49.1237V18.8763C22.2411 18.6282 22.4434 18.4271 22.6931 18.4271H45.8962C46.1458 18.4271 46.3482 18.6282 46.3482 18.8763V49.1237C46.3482 49.3718 46.1458 49.5729 45.8962 49.5729ZM28.2679 30.4063C28.2679 27.0983 30.9661 24.4167 34.2946 24.4167C37.6232 24.4167 40.3214 27.0983 40.3214 30.4063C40.3214 33.7142 37.6232 36.3958 34.2946 36.3958C30.9661 36.3958 28.2679 33.7142 28.2679 30.4063ZM43.9375 40.3997V41.7865C43.9375 42.7789 43.128 43.5833 42.1295 43.5833H26.4598C25.4613 43.5833 24.6518 42.7789 24.6518 41.7865V40.3997C24.6518 38.7506 25.7811 37.3132 27.3908 36.9132L30.077 36.2458C32.2693 37.813 35.6901 38.2632 38.5123 36.2458L41.1985 36.9132C42.8082 37.3132 43.9375 38.7507 43.9375 40.3997Z" fill="white"/>
<rect x="36" y="39" width="25" height="25" rx="4" fill="#FFCA41"/>
<path d="M55 51L59 47L55 43V46H40V48H55V51ZM43 51L39 55L43 59V56H58V54H43V51Z" fill="#1E5051"/>
</g>
</g>
<defs>
<linearGradient id="paint0_linear_1_35" x1="7000" y1="0" x2="0" y2="7000" gradientUnits="userSpaceOnUse">
<stop stop-color="#269396"/>
<stop offset="1" stop-color="#218689"/>
</linearGradient>
<clipPath id="clip0_1_35">
<rect width="70" height="70" fill="white"/>
</clipPath>
<clipPath id="clip1_1_35">
<rect width="70" height="70" fill="white"/>
</clipPath>
</defs>
</svg>
